<?xml version="1.0" standalone="no"?>
<!DOCTYPE svg PUBLIC "-//W3C//DTD SVG 20010904//EN"
 "http://www.w3.org/TR/2001/REC-SVG-20010904/DTD/svg10.dtd">
<svg version="1.0" xmlns="http://www.w3.org/2000/svg"
 width="1024.000000pt" height="40.000000pt" viewBox="0 0 1024.000000 40.000000"
 preserveAspectRatio="xMidYMid meet">

<g transform="translate(0.000000,40.000000) scale(0.100000,-0.100000)"
fill="#000000" stroke="none">
<path d="M150 265 c-15 -18 -10 -45 13 -59 34 -22 73 27 47 59 -16 19 -44 19
-60 0z"/>
<path d="M235 240 c0 -30 2 -36 12 -28 7 6 13 18 13 28 0 10 -6 22 -13 28 -10
8 -12 2 -12 -28z"/>
<path d="M122 174 c-12 -8 -22 -24 -22 -35 0 -17 7 -19 80 -19 73 0 80 2 80
19 0 27 -37 51 -80 51 -20 0 -46 -7 -58 -16z"/>
<path d="M268 168 c7 -7 12 -20 12 -30 0 -10 5 -18 10 -18 15 0 12 27 -6 44
-8 9 -18 16 -22 16 -3 0 -1 -5 6 -12z"/>
</g>
</svg>
